<svg xmlns="http://www.w3.org/2000/svg"  viewBox="0 0 28 28" width="48px" height="48px"><path fill="#FF7C66" d="M4.337,2.926c0,0,19.933-0.833,20.933,0s-7,9.333-12.833,15.083s-6.45,8.117-8.1,7.267	C2.687,24.426,4.337,2.926,4.337,2.926z"/><path d="M2.65,25.35c-0.063,0-0.128-0.012-0.189-0.037c-0.188-0.077-0.311-0.26-0.311-0.463v-8.625 c0-0.127,0.048-0.249,0.135-0.342l12.85-13.725C15.229,2.058,15.361,2,15.5,2h9.143c0.201,0,0.384,0.121,0.461,0.307 c0.078,0.186,0.037,0.4-0.104,0.544L3.007,25.2C2.911,25.298,2.782,25.35,2.65,25.35z M3.15,16.422v7.207L23.449,3h-7.732 L3.15,16.422z"/><path d="M2.575,13.88c-0.062,0-0.126-0.012-0.187-0.036c-0.189-0.076-0.313-0.26-0.313-0.464V2.599c0-0.276,0.224-0.5,0.5-0.5 h10.35c0.2,0,0.382,0.119,0.46,0.304s0.039,0.398-0.1,0.543L2.936,13.727C2.84,13.826,2.709,13.88,2.575,13.88z M3.075,3.099v9.038 l8.677-9.038H3.075z"/><path d="M24.912,25.949H5.334c-0.201,0-0.383-0.121-0.461-0.307s-0.037-0.4,0.104-0.544l9.746-9.919 c0.094-0.096,0.222-0.149,0.355-0.149h0.001c0.134,0,0.261,0.054,0.355,0.148l9.832,9.919c0.142,0.143,0.184,0.357,0.106,0.544 C25.296,25.828,25.114,25.949,24.912,25.949z M6.526,24.949h17.187l-8.631-8.707L6.526,24.949z"/></svg>