<svg xmlns="http://www.w3.org/2000/svg"  viewBox="0 0 24 24" width="48px" height="48px"><linearGradient id="J47VuG2Gv8rPymVaRiXSXa" x1="-125.525" x2="-124.528" y1="61.165" y2="62.162" gradientTransform="matrix(20 0 0 -20 2508 1244.27)" gradientUnits="userSpaceOnUse"><stop offset=".108" stop-color="#c757bc"/><stop offset=".173" stop-color="#cd5ca9"/><stop offset=".492" stop-color="#e8744f"/><stop offset=".716" stop-color="#f88316"/><stop offset=".823" stop-color="#ff8900"/></linearGradient><path fill="url(#J47VuG2Gv8rPymVaRiXSXa)" d="M12.941,0.75L1.041,14.216l-0.219,8.197L22.012,0.75H12.941z"/><linearGradient id="J47VuG2Gv8rPymVaRiXSXb" x1="-124.912" x2="-124.513" y1="60.924" y2="61.324" gradientTransform="matrix(20 0 0 -20 2508 1244.27)" gradientUnits="userSpaceOnUse"><stop offset=".296" stop-color="#00afff"/><stop offset=".694" stop-color="#5282ff"/><stop offset="1" stop-color="#945dff"/></linearGradient><path fill="url(#J47VuG2Gv8rPymVaRiXSXb)" d="M4.929,21.786l7.222-7.235c0.448-0.449,1.175-0.448,1.621,0.002l7.183,7.235 c0.717,0.722,0.205,1.95-0.812,1.95H5.739C4.72,23.738,4.209,22.507,4.929,21.786z"/><linearGradient id="J47VuG2Gv8rPymVaRiXSXc" x1="-125.373" x2="-125.085" y1="61.915" y2="62.203" gradientTransform="matrix(20 0 0 -20 2508 1244.27)" gradientUnits="userSpaceOnUse"><stop offset=".296" stop-color="#00afff"/><stop offset=".694" stop-color="#5282ff"/><stop offset="1" stop-color="#945dff"/></linearGradient><path fill="url(#J47VuG2Gv8rPymVaRiXSXc)" d="M0.75,0.967h9.11l-9.11,9.581V0.967z"/><path d="M0.821,23.163c-0.096,0-0.193-0.019-0.285-0.057c-0.281-0.115-0.465-0.39-0.465-0.693v-7.957 c0-0.187,0.069-0.367,0.195-0.505L12.745,0.245C12.888,0.089,13.089,0,13.3,0h8.95c0.303,0,0.575,0.182,0.692,0.461 c0.116,0.279,0.054,0.602-0.159,0.816L1.354,22.94C1.211,23.086,1.018,23.163,0.821,23.163z M1.571,14.746v5.843L20.453,1.5 h-6.822L1.571,14.746z"/><path d="M0.75,11.417c-0.092,0-0.185-0.017-0.274-0.052C0.188,11.253,0,10.976,0,10.667v-9.82c0-0.414,0.336-0.75,0.75-0.75h9.11 c0.298,0,0.568,0.177,0.688,0.45s0.065,0.591-0.138,0.81l-9.11,9.82C1.155,11.333,0.954,11.417,0.75,11.417z M1.5,1.597v7.159 l6.642-7.159H1.5z"/><path d="M22.013,24H3.87c-0.302,0-0.573-0.181-0.691-0.458c-0.117-0.278-0.057-0.599,0.154-0.815l9.005-9.25 c0.142-0.146,0.313-0.219,0.537-0.227c0.2,0,0.393,0.08,0.533,0.223l9.138,9.25c0.213,0.216,0.275,0.537,0.159,0.816 C22.588,23.818,22.315,24,22.013,24z M5.646,22.5h14.571l-7.339-7.429L5.646,22.5z"/></svg>